HIERARCHY
ROOT newVegas:Hips
{
	OFFSET 0.000000 96.479958 0.000000
	CHANNELS 6 Xposition Yposition Zposition Xrotation Yrotation Zrotation
	JOINT newVegas:Pelvis
	{
		OFFSET 0.000000 0.000000 0.000000
		CHANNELS 3 Xrotation Yrotation Zrotation
		JOINT newVegas:LeftUpLeg
		{
			OFFSET 18.735201 -5.666702 -4.541200
			CHANNELS 3 Xrotation Yrotation Zrotation
			JOINT newVegas:LeftLeg
			{
				OFFSET -0.021200 -31.938179 0.493100
				CHANNELS 3 Xrotation Yrotation Zrotation
				JOINT newVegas:LeftFoot
				{
					OFFSET 0.021200 -31.938179 -4.336299
					CHANNELS 3 Xrotation Yrotation Zrotation
					JOINT newVegas:LeftToeBase
					{
						OFFSET 0.943001 -26.722000 15.023500
						CHANNELS 3 Xrotation Yrotation Zrotation
						End Site
						{
							OFFSET 0.000000 30.670183 0.000000
						}
					}
				}
				JOINT newVegas:Left_PantLeg
				{
					OFFSET 0.663870 -9.044666 -1.108900
					CHANNELS 3 Xrotation Yrotation Zrotation
					End Site
					{
						OFFSET 1.415995 20.635357 0.000000
					}
				}
			}
		}
		JOINT newVegas:RightUpLeg
		{
			OFFSET -18.735201 -5.666702 -4.541200
			CHANNELS 3 Xrotation Yrotation Zrotation
			JOINT newVegas:RightLeg
			{
				OFFSET 0.018946 -31.938133 0.493100
				CHANNELS 3 Xrotation Yrotation Zrotation
				JOINT newVegas:RightFoot
				{
					OFFSET -0.018946 -31.938126 -4.336299
					CHANNELS 3 Xrotation Yrotation Zrotation
					JOINT newVegas:RightToeBase
					{
						OFFSET -0.943001 -26.722004 15.023500
						CHANNELS 3 Xrotation Yrotation Zrotation
						End Site
						{
							OFFSET 0.000000 30.670187 0.000000
						}
					}
				}
				JOINT newVegas:Right_PantLeg
				{
					OFFSET -0.661674 -9.044716 -1.108900
					CHANNELS 3 Xrotation Yrotation Zrotation
					End Site
					{
						OFFSET -1.415958 20.635269 0.000000
					}
				}
			}
		}
	}
	JOINT newVegas:Spine
	{
		OFFSET 0.000000 10.199997 -0.299500
		CHANNELS 3 Xrotation Yrotation Zrotation
		JOINT newVegas:Spine1
		{
			OFFSET 0.000000 11.900002 -1.516600
			CHANNELS 3 Xrotation Yrotation Zrotation
			JOINT newVegas:Spine2
			{
				OFFSET 0.000000 13.600006 -2.842500
				CHANNELS 3 Xrotation Yrotation Zrotation
				JOINT newVegas:Neck
				{
					OFFSET 0.000000 9.624100 -2.890100
					CHANNELS 3 Xrotation Yrotation Zrotation
					JOINT newVegas:Head
					{
						OFFSET 0.000000 14.068802 -1.351900
						CHANNELS 3 Xrotation Yrotation Zrotation
						JOINT newVegas:Hair_Back
						{
							OFFSET 0.000000 3.231903 -17.524799
							CHANNELS 3 Xrotation Yrotation Zrotation
							End Site
							{
								OFFSET 0.000000 19.849884 0.000000
							}
						}
						JOINT newVegas:Hair_Front
						{
							OFFSET 0.000000 31.260406 4.573800
							CHANNELS 3 Xrotation Yrotation Zrotation
							JOINT newVegas:Hair_Front1
							{
								OFFSET 0.000000 2.284103 11.993300
								CHANNELS 3 Xrotation Yrotation Zrotation
								JOINT newVegas:Hair_Front2
								{
									OFFSET 0.000000 2.284103 11.993300
									CHANNELS 3 Xrotation Yrotation Zrotation
									End Site
									{
										OFFSET 0.000000 12.208862 0.000000
									}
								}
							}
						}
						JOINT newVegas:Jowel
						{
							OFFSET 0.000000 -7.458206 6.864100
							CHANNELS 3 Xrotation Yrotation Zrotation
							End Site
							{
								OFFSET 0.000000 19.849884 0.000000
							}
						}
					}
				}
				JOINT newVegas:LeftShoulder
				{
					OFFSET 15.263000 10.923401 -0.547700
					CHANNELS 3 Xrotation Yrotation Zrotation
					JOINT newVegas:LeftArm
					{
						OFFSET 25.438599 -2.830597 -13.032500
						CHANNELS 3 Xrotation Yrotation Zrotation
						JOINT newVegas:LeftForeArm
						{
							OFFSET 29.960503 0.000000 0.000000
							CHANNELS 3 Xrotation Yrotation Zrotation
							JOINT newVegas:LeftHand
							{
								OFFSET 27.849251 0.000000 0.000000
								CHANNELS 3 Xrotation Yrotation Zrotation
								JOINT newVegas:LeftHandThumb1
								{
									OFFSET 4.487587 -3.305161 6.305391
									CHANNELS 3 Xrotation Yrotation Zrotation
									JOINT newVegas:LeftHandThumb2
									{
										OFFSET 5.480453 -3.164139 3.164143
										CHANNELS 3 Xrotation Yrotation Zrotation
										JOINT newVegas:LeftHandThumb3
										{
											OFFSET 5.159721 -2.978973 2.978967
											CHANNELS 3 Xrotation Yrotation Zrotation
											End Site
											{
												OFFSET 2.494507 5.926697 1.738678
											}
										}
									}
								}
								JOINT newVegas:LeftHandIndex1
								{
									OFFSET 18.578728 -0.527832 5.208049
									CHANNELS 3 Xrotation Yrotation Zrotation
									JOINT newVegas:LeftHandIndex2
									{
										OFFSET 3.192009 0.000000 0.000000
										CHANNELS 3 Xrotation Yrotation Zrotation
										JOINT newVegas:LeftHandIndex3
										{
											OFFSET 3.835129 0.000000 0.000000
											CHANNELS 3 Xrotation Yrotation Zrotation
											End Site
											{
												OFFSET -0.034599 3.816971 0.371180
											}
										}
									}
								}
								JOINT newVegas:LeftHandMiddle1
								{
									OFFSET 18.476105 0.000000 0.000000
									CHANNELS 3 Xrotation Yrotation Zrotation
									JOINT newVegas:LeftHandMiddle2
									{
										OFFSET 3.324875 0.000000 0.000000
										CHANNELS 3 Xrotation Yrotation Zrotation
										JOINT newVegas:LeftHandMiddle3
										{
											OFFSET 4.596550 0.000000 0.000000
											CHANNELS 3 Xrotation Yrotation Zrotation
											End Site
											{
												OFFSET 0.057701 4.578827 0.399218
											}
										}
									}
								}
								JOINT newVegas:LeftHandRing1
								{
									OFFSET 17.732719 0.121887 -4.201567
									CHANNELS 3 Xrotation Yrotation Zrotation
									JOINT newVegas:LeftHandRing2
									{
										OFFSET 2.733170 0.000000 0.000000
										CHANNELS 3 Xrotation Yrotation Zrotation
										JOINT newVegas:LeftHandRing3
										{
											OFFSET 3.178268 0.000000 0.000000
											CHANNELS 3 Xrotation Yrotation Zrotation
											End Site
											{
												OFFSET 0.119102 3.170624 0.185394
											}
										}
									}
								}
								JOINT newVegas:LeftHandPinky1
								{
									OFFSET 15.989624 -0.606689 -7.535461
									CHANNELS 3 Xrotation Yrotation Zrotation
									JOINT newVegas:LeftHandPinky2
									{
										OFFSET 2.538986 0.000000 0.000000
										CHANNELS 3 Xrotation Yrotation Zrotation
										JOINT newVegas:LeftHandPinky3
										{
											OFFSET 2.593102 0.000000 0.000000
											CHANNELS 3 Xrotation Yrotation Zrotation
											End Site
											{
												OFFSET -0.150902 2.584198 0.152708
											}
										}
									}
								}
							}
							JOINT newVegas:Left_Sleeve
							{
								OFFSET 0.267448 -0.649796 0.577675
								CHANNELS 3 Xrotation Yrotation Zrotation
								End Site
								{
									OFFSET 0.000000 15.991241 0.000000
								}
							}
							JOINT newVegas:Left_CapeC
							{
								OFFSET 15.715958 -8.608795 -6.935905
								CHANNELS 3 Xrotation Yrotation Zrotation
								JOINT newVegas:Left_CapeC1
								{
									OFFSET 0.000000 -8.688499 0.000000
									CHANNELS 3 Xrotation Yrotation Zrotation
									End Site
									{
										OFFSET 0.000000 8.688499 0.000000
									}
								}
							}
						}
						JOINT newVegas:Left_CapeB
						{
							OFFSET 26.118385 -8.608795 -7.079235
							CHANNELS 3 Xrotation Yrotation Zrotation
							JOINT newVegas:Left_CapeB1
							{
								OFFSET 0.000000 -8.688499 0.000000
								CHANNELS 3 Xrotation Yrotation Zrotation
								End Site
								{
									OFFSET 0.000000 8.688499 0.000000
								}
							}
						}
						JOINT newVegas:Left_CapeA
						{
							OFFSET 5.115639 -8.608795 -10.395809
							CHANNELS 3 Xrotation Yrotation Zrotation
							JOINT newVegas:Left_CapeA1
							{
								OFFSET 0.000000 -8.688499 0.000000
								CHANNELS 3 Xrotation Yrotation Zrotation
								End Site
								{
									OFFSET 0.000000 8.688499 0.000000
								}
							}
						}
					}
				}
				JOINT newVegas:RightShoulder
				{
					OFFSET -15.263000 10.923401 -0.547700
					CHANNELS 3 Xrotation Yrotation Zrotation
					JOINT newVegas:RightArm
					{
						OFFSET -25.438599 -2.830597 -13.032500
						CHANNELS 3 Xrotation Yrotation Zrotation
						JOINT newVegas:RightForeArm
						{
							OFFSET -29.960503 0.000000 0.000000
							CHANNELS 3 Xrotation Yrotation Zrotation
							JOINT newVegas:RightHand
							{
								OFFSET -27.849251 0.000000 0.000000
								CHANNELS 3 Xrotation Yrotation Zrotation
								JOINT newVegas:RightHandThumb1
								{
									OFFSET -4.487587 -3.305161 6.305391
									CHANNELS 3 Xrotation Yrotation Zrotation
									JOINT newVegas:RightHandThumb2
									{
										OFFSET -5.480453 -3.164139 3.164143
										CHANNELS 3 Xrotation Yrotation Zrotation
										JOINT newVegas:RightHandThumb3
										{
											OFFSET -5.159721 -2.978973 2.978967
											CHANNELS 3 Xrotation Yrotation Zrotation
											End Site
											{
												OFFSET -2.494507 5.926697 1.738678
											}
										}
									}
								}
								JOINT newVegas:RightHandIndex1
								{
									OFFSET -18.578728 -0.527832 5.208049
									CHANNELS 3 Xrotation Yrotation Zrotation
									JOINT newVegas:RightHandIndex2
									{
										OFFSET -3.192009 0.000000 0.000000
										CHANNELS 3 Xrotation Yrotation Zrotation
										JOINT newVegas:RightHandIndex3
										{
											OFFSET -3.835129 0.000000 0.000000
											CHANNELS 3 Xrotation Yrotation Zrotation
											End Site
											{
												OFFSET 0.034599 3.816971 0.371180
											}
										}
									}
								}
								JOINT newVegas:RightHandMiddle1
								{
									OFFSET -18.476105 0.000000 0.000000
									CHANNELS 3 Xrotation Yrotation Zrotation
									JOINT newVegas:RightHandMiddle2
									{
										OFFSET -3.324875 0.000000 0.000000
										CHANNELS 3 Xrotation Yrotation Zrotation
										JOINT newVegas:RightHandMiddle3
										{
											OFFSET -4.596550 0.000000 0.000000
											CHANNELS 3 Xrotation Yrotation Zrotation
											End Site
											{
												OFFSET -0.057701 4.578827 0.399218
											}
										}
									}
								}
								JOINT newVegas:RightHandRing1
								{
									OFFSET -17.732719 0.121887 -4.201567
									CHANNELS 3 Xrotation Yrotation Zrotation
									JOINT newVegas:RightHandRing2
									{
										OFFSET -2.733170 0.000000 0.000000
										CHANNELS 3 Xrotation Yrotation Zrotation
										JOINT newVegas:RightHandRing3
										{
											OFFSET -3.178268 0.000000 0.000000
											CHANNELS 3 Xrotation Yrotation Zrotation
											End Site
											{
												OFFSET -0.119102 3.170624 0.185394
											}
										}
									}
								}
								JOINT newVegas:RightHandPinky1
								{
									OFFSET -15.989624 -0.606689 -7.535461
									CHANNELS 3 Xrotation Yrotation Zrotation
									JOINT newVegas:RightHandPinky2
									{
										OFFSET -2.538986 0.000000 0.000000
										CHANNELS 3 Xrotation Yrotation Zrotation
										JOINT newVegas:RightHandPinky3
										{
											OFFSET -2.593102 0.000000 0.000000
											CHANNELS 3 Xrotation Yrotation Zrotation
											End Site
											{
												OFFSET 0.150902 2.584198 0.152708
											}
										}
									}
								}
							}
							JOINT newVegas:Right_CapeC
							{
								OFFSET -15.715958 -8.608795 -6.935905
								CHANNELS 3 Xrotation Yrotation Zrotation
								JOINT newVegas:Right_CapeC1
								{
									OFFSET 0.000000 -8.688499 0.000000
									CHANNELS 3 Xrotation Yrotation Zrotation
									End Site
									{
										OFFSET 0.000000 8.688499 0.000000
									}
								}
							}
							JOINT newVegas:Right_Sleeve
							{
								OFFSET -0.267448 -0.649994 0.577675
								CHANNELS 3 Xrotation Yrotation Zrotation
								End Site
								{
									OFFSET 0.000000 15.991302 0.000000
								}
							}
						}
						JOINT newVegas:Right_CapeA
						{
							OFFSET -5.115540 -8.608795 -10.395824
							CHANNELS 3 Xrotation Yrotation Zrotation
							JOINT newVegas:Right_CapeA1
							{
								OFFSET 0.000000 -8.688499 0.000000
								CHANNELS 3 Xrotation Yrotation Zrotation
								End Site
								{
									OFFSET 0.000000 8.688499 0.000000
								}
							}
						}
						JOINT newVegas:Right_CapeB
						{
							OFFSET -26.118187 -8.608795 -7.079266
							CHANNELS 3 Xrotation Yrotation Zrotation
							JOINT newVegas:Right_CapeB1
							{
								OFFSET 0.000000 -8.688499 0.000000
								CHANNELS 3 Xrotation Yrotation Zrotation
								End Site
								{
									OFFSET 0.000000 8.688499 0.000000
								}
							}
						}
					}
				}
				JOINT newVegas:Left_Collar
				{
					OFFSET 18.625099 8.655502 8.828100
					CHANNELS 3 Xrotation Yrotation Zrotation
					JOINT newVegas:Left_Collar1
					{
						OFFSET 14.783401 10.540405 -1.259500
						CHANNELS 3 Xrotation Yrotation Zrotation
						End Site
						{
							OFFSET 0.000000 18.199875 0.000000
						}
					}
				}
				JOINT newVegas:Collar_Back
				{
					OFFSET 0.000000 15.630707 -20.132601
					CHANNELS 3 Xrotation Yrotation Zrotation
					End Site
					{
						OFFSET 0.000000 22.523010 0.000000
					}
				}
				JOINT newVegas:Left_Peck
				{
					OFFSET 17.239599 -5.132599 25.482599
					CHANNELS 3 Xrotation Yrotation Zrotation
					End Site
					{
						OFFSET 0.000000 22.523010 0.000000
					}
				}
				JOINT newVegas:Right_Peck
				{
					OFFSET -17.239599 -5.132202 25.482599
					CHANNELS 3 Xrotation Yrotation Zrotation
					End Site
					{
						OFFSET 0.000000 22.523010 0.000000
					}
				}
				JOINT newVegas:Right_Collar
				{
					OFFSET -18.625099 8.655792 8.828100
					CHANNELS 3 Xrotation Yrotation Zrotation
					JOINT newVegas:Right_Collar1
					{
						OFFSET -14.783401 10.539993 -1.259500
						CHANNELS 3 Xrotation Yrotation Zrotation
						End Site
						{
							OFFSET 0.000000 18.199631 0.000000
						}
					}
				}
			}
		}
		JOINT newVegas:Belly
		{
			OFFSET 0.000000 -6.540398 9.014299
			CHANNELS 3 Xrotation Yrotation Zrotation
			End Site
			{
				OFFSET 0.000000 11.566666 0.000000
			}
		}
	}
	JOINT newVegas:ElvisFacialAnim_Joint
	{
		OFFSET 1.000000 -95.330101 -8.825800
		CHANNELS 3 Xrotation Yrotation Zrotation
		End Site
		{
			OFFSET 0.000000 35.315800 0.000000
		}
	}
}
MOTION
Frames: 4
Frame Time: 0.016667
1.000890 112.103790 1.782272 -92.611771 1.458714 4.274403 -0.000000 -0.000000 0.000000 -7.396382 12.765964 16.470977 9.123633 7.019345 4.029039 38.017793 27.736141 -32.217545 -0.000001 0.000001 -0.000000 -0.000000 -0.000000 0.000002 -12.783960 -14.874813 -21.765682 16.141079 -5.551992 -7.168122 34.347809 -29.828676 34.283793 0.000002 0.000003 -0.000000 0.000000 -0.000002 -0.000001 4.273768 -0.741888 0.466030 5.662843 -1.787562 -1.408118 5.682635 -1.863436 -1.213449 -1.098775 -0.166864 0.720529 -1.098752 -0.166863 0.720528 0.000001 0.000000 -0.000000 -1.098757 -0.166866 0.720531 -1.098768 -0.166858 0.720528 -0.000001 -0.000000 -0.000000 0.000001 0.000000 -0.000000 0.833464 0.643752 -7.065388 35.730905 -29.399965 -39.106043 -0.000293 -86.008740 -0.000270 -14.794581 -4.980866 -2.151159 6.590533 -4.958657 16.122658 7.178848 21.567330 2.147301 -0.000000 -0.000003 -0.000001 0.659520 4.932360 -26.024465 0.169790 1.401624 -13.813537 0.000001 0.000004 0.000002 1.376922 6.461956 -24.994177 0.169875 1.401965 -13.817113 0.000002 -0.000000 0.000000 2.098727 8.644291 -21.209689 0.169799 1.401608 -13.813540 0.000004 -0.000001 0.000001 2.123423 10.735878 -14.817566 0.167497 1.392249 -13.719338 -0.000000 -0.000002 -0.000001 -0.000001 -0.000003 -0.000003 -0.000001 -0.000003 -0.000003 -0.000002 -0.000003 -0.000003 -0.000002 -0.000001 0.000001 -0.000002 -0.000002 0.000001 -0.000002 -0.000001 0.000001 -0.000004 0.000000 -0.000000 1.050847 -2.047990 18.147309 -39.666078 52.653409 55.025882 -0.000103 100.264868 0.000081 -34.129970 33.547348 -4.808392 24.570543 30.236722 15.138926 9.301609 -39.834046 -3.735088 0.000000 0.000003 0.000001 -0.115177 -3.017701 29.162712 0.947772 -2.817937 37.173270 -0.000000 -0.000000 -0.000000 -2.076518 -3.537387 58.007827 2.575722 -4.167040 63.427445 -0.000002 -0.000002 0.000000 0.679046 -5.779009 70.144622 3.287901 -4.451762 72.883951 0.000002 -0.000003 -0.000002 3.720123 -6.826264 77.738379 3.738173 -4.565773 78.607158 0.000000 -0.000000 0.000001 -0.000001 0.000005 0.000000 -0.000001 0.000005 0.000003 -0.000001 0.000005 -0.000000 -0.000000 -0.000001 -0.000001 -0.000000 0.000000 0.000002 -0.000000 -0.000001 -0.000001 -0.000000 0.000000 0.000002 0.000000 -0.000000 0.000000 0.000000 -0.000000 0.000000 0.000000 -0.000000 0.000000 0.000000 -0.000000 0.000000 0.000000 -0.000000 0.000000 0.000000 -0.000000 0.000000 0.000000 -0.000000 0.000000 0.000000 0.000000 0.000000 -0.000000 -0.000000 0.000000 
0.959618 112.084625 1.617371 -92.824497 1.328669 4.264901 0.000000 -0.000000 -0.000000 -6.886961 12.949193 16.435457 9.421320 6.977177 4.107713 37.830912 28.482095 -32.804350 -0.000000 0.000001 -0.000000 0.000001 0.000002 -0.000001 -12.724125 -15.103826 -21.885557 16.070303 -5.427996 -7.066878 34.741491 -29.806771 34.179551 0.000001 -0.000000 0.000000 -0.000001 0.000001 0.000000 4.235789 -0.731907 0.420736 5.577424 -1.781749 -1.434907 5.572908 -1.863084 -1.240883 -1.107525 -0.170851 0.745090 -1.107540 -0.170851 0.745090 -0.000000 -0.000000 -0.000000 -1.107475 -0.170851 0.745092 -1.107550 -0.170845 0.745090 -0.000001 0.000000 -0.000000 -0.000000 -0.000000 -0.000000 0.795790 0.368579 -6.754034 35.724335 -29.362628 -39.579095 -0.000149 -85.982287 -0.000158 -14.760411 -4.934462 -2.109618 6.590535 -4.958660 16.122667 7.178850 21.567325 2.147298 0.000002 0.000002 -0.000006 0.659518 4.932360 -26.024455 0.169789 1.401623 -13.813539 0.000002 0.000002 -0.000000 1.376922 6.461955 -24.994169 0.169874 1.401961 -13.817116 -0.000004 0.000002 0.000001 2.098726 8.644287 -21.209684 0.169796 1.401614 -13.813540 -0.000003 0.000001 0.000000 2.123421 10.735881 -14.817558 0.167501 1.392256 -13.719343 0.000002 -0.000002 -0.000001 -0.000000 -0.000003 0.000003 -0.000000 -0.000003 0.000003 -0.000001 -0.000002 0.000004 0.000005 -0.000002 -0.000001 0.000006 -0.000003 0.000000 0.000005 -0.000002 -0.000001 0.000004 -0.000001 -0.000002 1.046859 -1.901963 17.705030 -41.695563 52.153231 56.287343 -0.001285 98.952086 0.001251 -34.567061 34.030127 -4.422386 24.570542 30.236715 15.138959 9.301621 -39.834046 -3.735090 0.000002 -0.000001 0.000001 -0.115166 -3.017714 29.162719 0.947762 -2.817937 37.173270 0.000001 -0.000002 0.000000 -2.076516 -3.537387 58.007834 2.575707 -4.167060 63.427425 0.000001 -0.000005 0.000005 0.679065 -5.779034 70.144608 3.287917 -4.451737 72.883951 0.000002 -0.000003 -0.000001 3.720126 -6.826268 77.738379 3.738163 -4.565759 78.607172 0.000004 0.000003 0.000001 -0.000003 0.000000 0.000000 -0.000003 -0.000000 0.000003 -0.000003 -0.000000 -0.000000 -0.000000 -0.000001 0.000001 -0.000000 0.000000 0.000003 -0.000000 -0.000001 0.000001 -0.000000 0.000000 0.000003 -0.000000 -0.000000 0.000000 -0.000000 -0.000000 0.000000 -0.000000 -0.000000 0.000000 -0.000000 -0.000000 0.000000 -0.000000 -0.000000 0.000000 -0.000000 -0.000000 0.000000 -0.000000 -0.000000 0.000000 0.000000 0.000000 0.000000 0.000000 -0.000000 -0.000000 
0.924343 112.062294 1.518082 -92.970534 1.281458 4.252265 0.000000 0.000000 0.000000 -6.569100 12.993868 16.440335 9.742937 6.926456 4.187745 37.757839 28.878211 -33.146037 -0.000002 0.000000 -0.000000 -0.000000 0.000002 0.000001 -12.654307 -15.272233 -22.014904 15.999064 -5.347712 -6.944150 35.153204 -29.779218 34.117212 0.000001 0.000001 0.000000 0.000002 -0.000002 -0.000000 4.229663 -0.714619 0.383746 5.498821 -1.756072 -1.456301 5.557735 -1.836371 -1.256271 -1.082449 -0.173021 0.758756 -1.082427 -0.173022 0.758757 0.000000 0.000000 -0.000000 -1.082385 -0.173017 0.758754 -1.082534 -0.173024 0.758757 -0.000000 0.000000 -0.000001 0.000000 0.000000 0.000000 0.752572 0.149308 -6.556121 35.791687 -29.405580 -39.728465 0.000153 -85.965662 0.000170 -14.823934 -4.926971 -1.997095 6.590541 -4.958664 16.122667 7.178849 21.567330 2.147301 0.000002 0.000001 -0.000003 0.659529 4.932358 -26.024469 0.169792 1.401622 -13.813540 -0.000002 -0.000006 -0.000002 1.376930 6.461954 -24.994174 0.169874 1.401964 -13.817117 0.000000 -0.000002 -0.000001 2.098731 8.644287 -21.209687 0.169796 1.401617 -13.813544 0.000000 0.000001 0.000000 2.123430 10.735877 -14.817563 0.167499 1.392250 -13.719344 -0.000001 0.000003 0.000001 0.000001 0.000002 0.000001 0.000001 0.000002 0.000001 -0.000000 0.000002 0.000002 -0.000003 -0.000002 0.000001 -0.000003 -0.000003 0.000001 -0.000003 -0.000002 0.000001 -0.000004 -0.000001 -0.000000 1.031406 -1.759339 17.391856 -42.645171 51.582070 56.777098 -0.000094 97.838252 0.000094 -34.847075 34.643744 -3.962465 24.570537 30.236694 15.138950 9.301582 -39.834029 -3.735117 0.000002 -0.000001 -0.000004 -0.115167 -3.017712 29.162719 0.947776 -2.817929 37.173270 -0.000003 0.000002 0.000001 -2.076515 -3.537399 58.007840 2.575703 -4.167056 63.427438 0.000002 -0.000000 0.000002 0.679047 -5.779038 70.144608 3.287932 -4.451764 72.883945 -0.000003 -0.000001 -0.000002 3.720118 -6.826272 77.738379 3.738180 -4.565755 78.607172 0.000003 0.000002 0.000001 -0.000002 0.000002 -0.000002 -0.000003 0.000004 0.000001 -0.000002 0.000002 -0.000001 -0.000001 0.000001 0.000001 -0.000001 0.000002 0.000001 -0.000001 0.000001 0.000001 -0.000001 0.000002 0.000002 -0.000000 0.000000 -0.000000 -0.000000 0.000000 -0.000000 -0.000000 0.000000 -0.000000 -0.000000 0.000000 -0.000000 -0.000000 0.000000 -0.000000 -0.000000 0.000000 -0.000000 -0.000000 0.000000 -0.000000 -0.000000 0.000000 0.000000 0.000000 0.000000 0.000000 
0.891547 112.053513 1.459984 -93.005962 1.210714 4.214298 0.000000 -0.000000 -0.000000 -6.499509 12.938905 16.508355 10.082601 6.875510 4.272421 37.808990 28.878156 -33.172702 -0.000000 -0.000001 -0.000000 -0.000001 -0.000000 -0.000001 -12.667284 -15.339184 -22.032800 15.947279 -5.237005 -6.926240 35.576181 -29.754415 34.061832 -0.000000 -0.000002 0.000001 0.000001 0.000001 0.000001 4.240660 -0.695491 0.367055 5.508404 -1.714589 -1.460459 5.567292 -1.797903 -1.270685 -1.000693 -0.174020 0.769100 -1.000685 -0.174020 0.769100 0.000000 -0.000000 -0.000000 -1.000776 -0.174019 0.769100 -1.000680 -0.174021 0.769103 -0.000001 0.000000 -0.000000 0.000000 -0.000000 -0.000000 0.749818 0.216471 -6.485455 35.680369 -29.527444 -39.791770 -0.000094 -85.903453 -0.000060 -14.753342 -4.901662 -2.106201 6.590540 -4.958660 16.122668 7.178850 21.567330 2.147304 -0.000001 -0.000002 -0.000003 0.659524 4.932362 -26.024458 0.169791 1.401619 -13.813540 -0.000002 -0.000004 -0.000001 1.376926 6.461958 -24.994172 0.169873 1.401967 -13.817112 -0.000002 0.000001 0.000000 2.098733 8.644284 -21.209684 0.169796 1.401617 -13.813541 0.000001 -0.000001 0.000000 2.123427 10.735877 -14.817563 0.167499 1.392253 -13.719344 0.000002 -0.000002 -0.000002 -0.000001 0.000002 -0.000000 -0.000001 0.000002 -0.000000 -0.000002 0.000002 0.000001 -0.000003 -0.000002 -0.000002 -0.000003 -0.000003 0.000000 -0.000003 -0.000002 -0.000002 -0.000004 -0.000001 -0.000002 1.021787 -1.623930 17.128494 -43.055426 51.175455 56.795338 -0.002213 96.870613 0.002227 -35.048023 35.074534 -3.705405 24.570550 30.236694 15.138928 9.301557 -39.834046 -3.735119 0.000001 0.000003 -0.000002 -0.115180 -3.017725 29.162726 0.947780 -2.817943 37.173267 0.000001 0.000001 -0.000001 -2.076523 -3.537391 58.007827 2.575694 -4.167048 63.427445 -0.000000 -0.000001 0.000003 0.679061 -5.779038 70.144629 3.287900 -4.451734 72.883951 0.000003 -0.000001 0.000001 3.720107 -6.826269 77.738372 3.738181 -4.565791 78.607172 -0.000001 -0.000002 0.000001 -0.000002 0.000000 -0.000001 -0.000003 -0.000000 0.000002 -0.000002 -0.000000 -0.000001 -0.000001 0.000001 -0.000003 -0.000001 0.000002 -0.000002 -0.000001 0.000001 -0.000003 -0.000001 0.000002 -0.000002 0.000001 -0.000000 -0.000000 0.000001 -0.000000 -0.000000 0.000001 -0.000000 -0.000000 0.000001 -0.000000 -0.000000 0.000001 -0.000000 -0.000000 0.000001 -0.000000 -0.000000 0.000001 -0.000000 -0.000000 0.000000 0.000000 0.000000 0.000000 -0.000000 -0.000000 
